<svg xmlns="http://www.w3.org/2000/svg" xmlns:xlink="http://www.w3.org/1999/xlink" width="500" zoomAndPan="magnify" viewBox="0 0 375 374.999991" height="500" preserveAspectRatio="xMidYMid meet" version="1.0"><defs><clipPath id="id1"><path d="M 112.5 183 L 261 183 L 261 226.6875 L 112.5 226.6875 Z M 112.5 183 " clip-rule="nonzero"/></clipPath></defs><g clip-path="url(#id1)"><path stroke-linecap="round" transform="matrix(1.336058, 0, 0, 1.342513, 84.489887, 86.663402)" fill="none" stroke-linejoin="round" d="M 99.49856 86.001182 C 99.94004 86.376528 100.425376 86.687861 100.951644 86.935182 C 101.474989 87.182503 102.024647 87.354172 102.597694 87.450191 C 103.170742 87.546209 103.743789 87.566577 104.322684 87.505474 C 104.901579 87.447281 105.460008 87.310527 106.000895 87.101032 C 112.570475 84.971164 119.338868 83.461053 125.999084 81.430113 C 128.101233 80.78126 130.630243 80.059666 129.601097 76.431325 C 128.569026 72.800075 125.899678 74.068685 124.040197 74.548778 C 117.149008 76.30912 110.389386 78.549554 103.501121 80.350631 C 102.770193 80.525211 102.109434 80.842363 101.518844 81.304998 C 100.928255 81.767633 100.463384 82.332107 100.12131 83.001327 C 97.720943 88.000116 93.22135 87.909916 88.99951 87.939013 C 68.173911 88.067038 47.33954 88.067038 26.499322 87.939013 C 22.751124 87.939013 22.631252 89.609155 23.499594 92.501353 C 24.800646 97.028777 29.668626 101.82098 34.498598 101.89954 C 49.330588 102.141042 64.180121 102.289434 79.000416 101.89954 C 85.999782 101.698774 89.759675 96.720354 90.499375 89.030134 " stroke="#000000" stroke-width="4" stroke-opacity="1" stroke-miterlimit="4"/></g><path stroke-linecap="round" transform="matrix(1.336058, 0, 0, 1.342513, 84.489887, 86.663402)" fill="none" stroke-linejoin="round" d="M 57.999394 48.498632 C 58.247909 48.876887 58.423332 49.287148 58.525662 49.729416 C 58.627992 50.168774 58.651381 50.613951 58.595831 51.062038 C 58.54028 51.510125 58.408713 51.937844 58.20113 52.339377 C 57.993546 52.740909 57.724565 53.092978 57.391262 53.401401 C 54.189797 56.660215 54.979199 59.959765 57.090119 62.939252 C 59.201039 65.91874 58.899897 68.848763 56.850375 70.850606 C 54.949962 72.689508 56.259785 74.851382 54.999665 76.501157 " stroke="#000000" stroke-width="4" stroke-opacity="1" stroke-miterlimit="4"/><path stroke-linecap="round" transform="matrix(1.336058, 0, 0, 1.342513, 84.489887, 86.663402)" fill="none" stroke-linejoin="round" d="M 71.00114 48.498632 C 70.159111 50.500475 70.518728 52.729271 68.691408 54.67874 C 68.492595 54.894055 68.317173 55.121008 68.162216 55.365419 C 68.007259 55.60983 67.872769 55.86588 67.761668 56.133568 C 67.650566 56.401256 67.565779 56.677673 67.504381 56.95991 C 67.442983 57.242147 67.404975 57.530202 67.39328 57.818258 C 67.381585 58.109224 67.396204 58.39728 67.437136 58.682426 C 67.475144 58.970482 67.539465 59.252719 67.630101 59.526226 C 67.717812 59.802644 67.831837 60.070332 67.966327 60.323472 C 68.103742 60.579522 68.261622 60.821023 68.439969 61.050886 C 71.290588 64.699594 71.439697 68.758563 68.439969 72.450916 C 68.200224 72.718605 68.004336 73.018299 67.85815 73.34709 C 67.711964 73.675881 67.618406 74.02213 67.577474 74.380018 C 67.539465 74.737906 67.554084 75.092884 67.627177 75.447862 C 67.70027 75.79993 67.823065 76.13454 68.001412 76.448783 " stroke="#000000" stroke-width="4" stroke-opacity="1" stroke-miterlimit="4"/><path stroke-linecap="round" transform="matrix(1.336058, 0, 0, 1.342513, 84.489887, 86.663402)" fill="none" stroke-linejoin="round" d="M 45.500526 50.500475 C 45.74027 52.499408 44.260872 53.869856 43.579647 55.499263 C 43.029989 56.840614 42.451094 59.028675 43.120624 59.881204 C 47.120262 64.879992 45.450822 69.640189 43.000752 74.470217 " stroke="#000000" stroke-width="4" stroke-opacity="1" stroke-miterlimit="4"/></svg>