<svg xmlns="http://www.w3.org/2000/svg" xmlns:xlink="http://www.w3.org/1999/xlink" width="500" zoomAndPan="magnify" viewBox="0 0 375 374.999991" height="500" preserveAspectRatio="xMidYMid meet" version="1.0"><defs><clipPath id="id1"><path d="M 167 112.5 L 213 112.5 L 213 155 L 167 155 Z M 167 112.5 " clip-rule="nonzero"/></clipPath><clipPath id="id2"><path d="M 112.5 147 L 262.5 147 L 262.5 262.5 L 112.5 262.5 Z M 112.5 147 " clip-rule="nonzero"/></clipPath></defs><g clip-path="url(#id1)"><path fill="#000000" d="M 197.5 127.5 L 172.5 127.5 L 172.5 125 C 172.5 120.859375 175.859375 117.5 180 117.5 L 190 117.5 C 194.140625 117.5 197.5 120.859375 197.5 125 Z M 197.5 150 L 172.5 150 L 172.5 132.5 L 197.5 132.5 Z M 190 112.5 L 180 112.5 C 173.105469 112.5 167.5 118.105469 167.5 125 L 167.5 155 L 202.5 155 L 202.5 132.5 L 212.5 132.5 L 212.5 127.5 L 202.5 127.5 L 202.5 125 C 202.5 118.105469 196.894531 112.5 190 112.5 " fill-opacity="1" fill-rule="nonzero"/></g><path fill="#000000" d="M 192.5 137.5 L 187.5 137.5 L 187.5 142.5 L 192.5 142.5 L 192.5 137.5 " fill-opacity="1" fill-rule="nonzero"/><path fill="#000000" d="M 182.5 137.5 L 177.5 137.5 L 177.5 142.5 L 182.5 142.5 L 182.5 137.5 " fill-opacity="1" fill-rule="nonzero"/><g clip-path="url(#id2)"><path fill="#000000" d="M 245 232.5 C 243.621094 232.5 242.5 233.621094 242.5 235 L 242.5 237.5 L 227.5 237.5 L 227.5 197.5 L 237.878906 197.5 L 242.539062 225.410156 C 242.734375 226.621094 243.777344 227.5 245 227.5 L 252.5 227.5 C 255.253906 227.5 257.5 229.746094 257.5 232.5 Z M 242.5 245 C 242.5 243.621094 243.621094 242.5 245 242.5 C 246.375 242.5 247.5 243.621094 247.5 245 C 247.5 246.375 246.375 247.5 245 247.5 C 243.621094 247.5 242.5 246.375 242.5 245 Z M 245 257.5 C 238.105469 257.5 232.5 251.894531 232.5 245 C 232.5 244.167969 232.617188 243.328125 232.792969 242.5 L 237.957031 242.5 C 237.683594 243.28125 237.5 244.121094 237.5 245 C 237.5 249.140625 240.859375 252.5 245 252.5 C 249.140625 252.5 252.5 249.140625 252.5 245 C 252.5 241.746094 250.398438 238.992188 247.5 237.957031 L 247.5 237.5 L 254.910156 237.5 C 256.5625 239.667969 257.5 242.273438 257.5 245 C 257.5 251.894531 251.894531 257.5 245 257.5 Z M 222.5 237.5 L 217.5 237.5 L 217.5 235 C 217.5 230.945312 214.257812 227.644531 210.234375 227.527344 L 212.488281 202.675781 C 212.683594 200.039062 211.816406 197.546875 210.066406 195.664062 C 208.191406 193.652344 205.4375 192.5 202.5 192.5 L 202.5 187.5 L 222.5 187.5 Z M 212.5 237.5 L 200 237.5 L 200 232.5 L 210 232.5 C 211.375 232.5 212.5 233.621094 212.5 235 Z M 197.5 202.5 L 172.5 202.5 L 172.5 197.5 L 202.5 197.5 C 204.050781 197.5 205.476562 198.066406 206.40625 199.070312 C 207.214844 199.929688 207.597656 201.0625 207.507812 202.273438 L 205.214844 227.5 L 200 227.5 L 200 205 C 200 203.621094 198.875 202.5 197.5 202.5 Z M 195 237.5 L 182.5 237.5 L 182.5 217.5 C 186.640625 217.5 190 214.140625 190 210 L 190 207.5 L 195 207.5 Z M 177.5 237.5 L 137.5 237.5 L 137.5 227.5 C 137.5 221.980469 141.980469 217.5 147.5 217.5 L 177.5 217.5 Z M 157.5 245 C 157.5 243.621094 158.621094 242.5 160 242.5 C 161.375 242.5 162.5 243.621094 162.5 245 C 162.5 246.375 161.375 247.5 160 247.5 C 158.621094 247.5 157.5 246.375 157.5 245 Z M 160 257.5 C 153.105469 257.5 147.5 251.894531 147.5 245 C 147.5 244.167969 147.585938 243.328125 147.761719 242.5 L 152.957031 242.5 C 152.683594 243.28125 152.5 244.121094 152.5 245 C 152.5 249.140625 155.859375 252.5 160 252.5 C 164.140625 252.5 167.5 249.140625 167.5 245 C 167.5 244.121094 167.3125 243.28125 167.039062 242.5 L 172.234375 242.5 C 172.410156 243.328125 172.5 244.167969 172.5 245 C 172.5 251.894531 166.894531 257.5 160 257.5 Z M 127.5 202.5 L 127.5 197.5 L 167.5 197.5 L 167.5 202.5 Z M 117.5 192.5 L 117.5 187.5 L 157.5 187.5 L 157.5 192.5 Z M 127.5 177.5 L 167.5 177.5 L 167.5 182.5 L 127.5 182.5 Z M 167.5 192.5 L 162.5 192.5 L 162.5 187.5 L 167.5 187.5 Z M 185 207.5 L 185 210 C 185 211.375 183.875 212.5 182.5 212.5 L 155 212.5 L 155 207.5 Z M 172.5 165 L 176.953125 165 C 175.320312 167.957031 175.722656 171.757812 178.230469 174.265625 L 190.730469 186.765625 C 191.199219 187.234375 191.835938 187.5 192.5 187.5 L 197.5 187.5 L 197.5 192.5 L 172.5 192.5 Z M 181.777344 166.765625 C 182.304688 166.238281 183.007812 165.945312 183.75 165.945312 C 184.5 165.945312 185.203125 166.238281 185.730469 166.765625 L 188.964844 170 L 185 173.964844 L 181.765625 170.730469 C 181.238281 170.203125 180.945312 169.5 180.945312 168.75 C 180.945312 168.007812 181.238281 167.304688 181.777344 166.765625 Z M 197.5 165 L 197.5 171.464844 L 191.035156 165 Z M 227.5 177.5 C 228.875 177.5 230 178.621094 230 180 C 230 181.375 228.875 182.5 227.5 182.5 L 193.535156 182.5 L 188.535156 177.5 L 192.5 173.535156 L 195.730469 176.765625 C 196.199219 177.234375 196.835938 177.5 197.5 177.5 Z M 235 180 C 235 179.121094 234.8125 178.289062 234.539062 177.5 L 242.5 177.5 L 242.5 192.5 L 227.5 192.5 L 227.5 187.5 C 231.640625 187.5 235 184.140625 235 180 Z M 225 162.5 C 222.246094 162.5 220 160.253906 220 157.5 C 220 154.746094 222.246094 152.5 225 152.5 C 227.753906 152.5 230 154.746094 230 157.5 C 230 160.253906 227.753906 162.5 225 162.5 Z M 247.5 177.929688 C 250.410156 178.964844 252.5 181.738281 252.5 185 C 252.5 188.261719 250.410156 191.035156 247.5 192.070312 Z M 252.5 222.5 L 247.117188 222.5 L 242.949219 197.5 L 245 197.5 C 251.894531 197.5 257.5 191.894531 257.5 185 C 257.5 178.105469 251.894531 172.5 245 172.5 L 236.414062 172.5 L 231.796875 164.792969 C 233.75 162.96875 235 160.390625 235 157.5 C 235 151.980469 230.515625 147.5 225 147.5 C 219.480469 147.5 215 151.980469 215 157.5 C 215 163.015625 219.480469 167.5 225 167.5 C 225.828125 167.5 226.621094 167.371094 227.390625 167.175781 L 230.585938 172.5 L 202.5 172.5 L 202.5 162.5 C 202.5 161.121094 201.375 160 200 160 L 170 160 C 168.621094 160 167.5 161.121094 167.5 162.5 L 167.5 172.5 L 125 172.5 C 123.621094 172.5 122.5 173.621094 122.5 175 L 122.5 182.5 L 115 182.5 C 113.621094 182.5 112.5 183.621094 112.5 185 L 112.5 195 C 112.5 196.375 113.621094 197.5 115 197.5 L 122.5 197.5 L 122.5 205 C 122.5 206.375 123.621094 207.5 125 207.5 L 150 207.5 L 150 212.5 L 147.5 212.5 C 139.226562 212.5 132.5 219.226562 132.5 227.5 L 132.5 240 C 132.5 241.375 133.621094 242.5 135 242.5 L 142.714844 242.5 C 142.597656 243.328125 142.5 244.160156 142.5 245 C 142.5 254.648438 150.351562 262.5 160 262.5 C 169.648438 262.5 177.5 254.648438 177.5 245 C 177.5 244.160156 177.402344 243.328125 177.285156 242.5 L 227.714844 242.5 C 227.597656 243.328125 227.5 244.160156 227.5 245 C 227.5 254.648438 235.351562 262.5 245 262.5 C 254.648438 262.5 262.5 254.648438 262.5 245 C 262.5 242.324219 261.882812 239.714844 260.722656 237.351562 C 261.746094 237.039062 262.5 236.121094 262.5 235 L 262.5 232.5 C 262.5 226.980469 258.015625 222.5 252.5 222.5 " fill-opacity="1" fill-rule="nonzero"/></g><path fill="#000000" d="M 145 232.5 L 150 232.5 L 150 227.5 L 145 227.5 L 145 232.5 " fill-opacity="1" fill-rule="nonzero"/><path fill="#000000" d="M 160 227.5 L 155 227.5 L 155 232.5 L 160 232.5 L 160 227.5 " fill-opacity="1" fill-rule="nonzero"/></svg>