<svg xmlns="http://www.w3.org/2000/svg" xmlns:xlink="http://www.w3.org/1999/xlink" width="500" zoomAndPan="magnify" viewBox="0 0 375 374.999991" height="500" preserveAspectRatio="xMidYMid meet" version="1.0"><defs><clipPath id="id1"><path d="M 121 118.59375 L 262.5 118.59375 L 262.5 256.59375 L 121 256.59375 Z M 121 118.59375 " clip-rule="nonzero"/></clipPath><clipPath id="id2"><path d="M 112.5 253 L 121 253 L 121 256.59375 L 112.5 256.59375 Z M 112.5 253 " clip-rule="nonzero"/></clipPath></defs><path fill="#000000" d="M 243.828125 234.800781 C 245.050781 235.566406 246.582031 235.261719 247.347656 234.035156 C 248.113281 232.808594 247.804688 231.277344 246.582031 230.355469 C 245.355469 229.589844 243.828125 229.894531 242.90625 231.121094 C 242.296875 232.347656 242.601562 234.035156 243.828125 234.800781 Z M 243.828125 234.800781 " fill-opacity="1" fill-rule="nonzero"/><g clip-path="url(#id1)"><path fill="#000000" d="M 121.988281 254.878906 C 121.988281 255.796875 122.601562 256.410156 123.519531 256.410156 L 260.96875 256.410156 C 261.886719 256.410156 262.5 255.796875 262.5 254.878906 C 262.5 253.960938 261.886719 253.347656 260.96875 253.347656 L 242.601562 253.347656 L 255.765625 233.421875 C 256.378906 232.5 256.53125 231.582031 256.378906 230.507812 C 256.222656 229.4375 255.613281 228.671875 254.695312 228.058594 L 245.96875 222.386719 C 244.4375 221.3125 242.449219 221.621094 241.070312 222.847656 C 240.304688 222.078125 239.695312 221.3125 239.539062 220.546875 C 238.929688 218.707031 237.855469 217.019531 236.171875 215.949219 L 232.652344 213.648438 L 232.652344 126.746094 C 232.652344 122.300781 229.132812 118.777344 224.695312 118.777344 L 145.714844 118.777344 C 141.277344 118.777344 137.753906 122.300781 137.753906 126.746094 L 137.753906 248.136719 C 137.753906 250.128906 138.519531 251.96875 139.746094 253.347656 L 123.519531 253.347656 C 122.601562 253.347656 121.988281 253.960938 121.988281 254.878906 Z M 243.0625 225.144531 C 243.214844 224.992188 243.367188 224.839844 243.519531 224.839844 C 243.671875 224.839844 243.980469 224.839844 244.132812 224.992188 L 252.855469 230.664062 C 253.164062 230.96875 253.316406 231.429688 253.011719 231.734375 L 239.539062 252.273438 C 239.234375 252.578125 238.777344 252.734375 238.46875 252.425781 C 236.9375 251.507812 231.582031 247.980469 231.886719 248.136719 C 231.734375 247.980469 229.59375 246.753906 229.746094 246.753906 C 229.4375 246.449219 229.285156 245.988281 229.59375 245.683594 L 230.050781 245.070312 L 242.601562 225.910156 Z M 236.632812 221.464844 C 237.09375 223 238.164062 224.378906 239.386719 225.453125 L 228.367188 242.3125 C 227.296875 241.542969 225.917969 240.625 224.234375 239.859375 C 224.234375 239.859375 224.082031 239.859375 224.082031 239.707031 C 222.855469 239.246094 221.632812 238.9375 220.40625 239.246094 L 210.460938 241.238281 C 209.386719 241.390625 208.46875 241.390625 207.855469 241.085938 C 207.703125 240.929688 207.398438 240.777344 207.246094 240.164062 C 207.09375 239.707031 207.09375 239.246094 207.246094 238.9375 C 207.550781 237.867188 208.316406 237.101562 209.386719 236.945312 C 209.539062 236.945312 215.816406 235.566406 215.355469 235.71875 C 215.96875 235.566406 216.429688 235.105469 216.582031 234.496094 C 216.734375 233.882812 216.429688 233.269531 215.96875 232.960938 L 195.460938 219.472656 C 194.695312 219.015625 194.539062 217.941406 195 217.175781 C 195.460938 216.410156 196.53125 216.253906 197.296875 216.714844 C 197.601562 216.867188 208.316406 223.917969 207.703125 223.457031 L 212.753906 226.832031 C 213.519531 227.289062 214.4375 227.136719 214.898438 226.371094 C 215.355469 225.605469 215.203125 224.683594 214.4375 224.226562 C 214.4375 224.226562 215.203125 224.683594 209.386719 220.851562 C 208.777344 220.394531 208.46875 219.628906 208.621094 219.015625 C 208.777344 218.246094 209.386719 217.941406 209.695312 217.789062 C 210.152344 217.632812 210.765625 217.632812 211.070312 217.941406 C 211.222656 218.09375 213.519531 219.628906 213.367188 219.472656 C 213.828125 219.78125 216.429688 221.464844 216.277344 221.3125 C 216.582031 221.464844 216.886719 221.621094 217.195312 221.621094 C 218.113281 221.621094 218.722656 220.851562 218.722656 220.085938 C 218.722656 219.628906 218.417969 219.167969 218.113281 218.859375 C 218.113281 218.859375 218.570312 219.167969 215.203125 217.019531 C 214.59375 216.5625 214.285156 215.796875 214.4375 215.183594 C 214.746094 214.261719 215.355469 213.957031 215.664062 213.957031 C 215.96875 213.957031 216.429688 213.957031 216.886719 214.261719 C 217.347656 214.570312 216.734375 214.261719 220.101562 216.410156 C 220.867188 216.867188 221.785156 216.714844 222.246094 215.949219 C 222.703125 215.183594 222.550781 214.261719 221.785156 213.804688 C 221.171875 213.34375 220.5625 212.421875 220.40625 211.65625 C 220.40625 211.351562 220.40625 211.042969 220.40625 211.042969 C 220.867188 210.277344 221.9375 210.125 222.550781 210.585938 L 234.488281 218.402344 C 235.40625 219.320312 236.171875 220.238281 236.632812 221.464844 Z M 221.9375 207.367188 C 221.632812 207.367188 221.171875 207.367188 220.867188 207.519531 C 219.644531 207.824219 218.570312 208.4375 217.960938 209.511719 C 217.652344 209.972656 217.5 210.585938 217.347656 211.351562 C 216.582031 211.195312 215.816406 211.042969 215.050781 211.195312 C 213.367188 211.503906 211.988281 212.882812 211.53125 214.570312 C 211.53125 214.722656 211.53125 214.875 211.378906 214.875 C 210.613281 214.722656 209.695312 214.722656 208.929688 215.027344 C 207.246094 211.351562 203.570312 208.898438 199.4375 208.898438 L 173.417969 208.898438 C 167.601562 208.898438 163.011719 213.496094 163.011719 219.320312 C 163.011719 225.144531 167.753906 229.742188 173.417969 229.742188 L 199.4375 229.742188 C 201.121094 229.742188 202.804688 229.28125 204.183594 228.515625 L 211.53125 233.269531 L 208.929688 233.882812 C 205.867188 234.496094 203.722656 237.558594 204.335938 240.777344 C 204.644531 242.003906 205.253906 243.078125 206.171875 243.691406 C 206.632812 243.996094 207.09375 244.148438 207.550781 244.304688 L 151.222656 244.304688 C 149.847656 244.304688 148.621094 243.078125 148.621094 241.699219 L 148.621094 133.183594 C 148.621094 131.804688 149.847656 130.578125 151.222656 130.578125 L 179.539062 130.578125 L 180.460938 131.804688 C 181.378906 133.03125 182.753906 133.796875 184.285156 133.796875 C 185.816406 133.796875 187.195312 133.03125 188.113281 131.804688 L 189.03125 130.578125 L 219.488281 130.578125 C 220.867188 130.578125 222.09375 131.804688 222.09375 133.183594 L 222.09375 207.367188 Z M 193.929688 221.925781 L 200.96875 226.523438 C 200.511719 226.675781 199.898438 226.675781 199.285156 226.675781 L 173.265625 226.675781 C 169.132812 226.675781 165.917969 223.304688 165.917969 219.320312 C 165.917969 215.183594 169.285156 211.964844 173.265625 211.964844 L 199.285156 211.964844 C 202.5 211.964844 205.253906 214.109375 206.328125 217.019531 C 206.019531 217.480469 205.867188 217.941406 205.714844 218.402344 L 199.132812 214.109375 C 196.988281 212.730469 194.082031 213.191406 192.703125 215.488281 C 191.171875 217.632812 191.632812 220.546875 193.929688 221.925781 Z M 221.785156 242.3125 C 221.480469 243.382812 220.40625 244.304688 219.335938 244.304688 L 211.222656 244.304688 L 220.867188 242.3125 C 221.019531 242.3125 221.480469 242.3125 221.785156 242.3125 Z M 140.816406 126.746094 C 140.816406 123.988281 142.960938 121.839844 145.714844 121.839844 L 224.695312 121.839844 C 227.449219 121.839844 229.59375 123.988281 229.59375 126.746094 L 229.59375 211.65625 L 225 208.589844 L 225 133.183594 C 225 130.117188 222.398438 127.511719 219.335938 127.511719 L 187.960938 127.511719 C 187.5 127.511719 187.039062 127.820312 186.734375 128.125 L 185.355469 130.117188 C 184.746094 130.882812 183.367188 130.882812 182.90625 130.117188 L 181.53125 128.125 C 181.222656 127.664062 180.765625 127.511719 180.304688 127.511719 L 151.222656 127.511719 C 148.164062 127.511719 145.5625 130.117188 145.5625 133.183594 L 145.5625 241.699219 C 145.5625 244.761719 148.164062 247.367188 151.222656 247.367188 L 219.335938 247.367188 C 221.785156 247.367188 223.929688 245.835938 224.695312 243.535156 C 225.152344 243.84375 225.460938 243.996094 226.683594 244.761719 C 225.917969 246.449219 226.53125 248.441406 228.0625 249.515625 L 229.132812 250.128906 C 228.367188 251.8125 226.683594 252.886719 224.695312 252.886719 L 145.714844 252.886719 C 142.960938 252.886719 140.816406 250.742188 140.816406 247.980469 Z M 231.734375 251.8125 L 234.03125 253.191406 L 230.816406 253.191406 C 231.121094 252.886719 231.429688 252.425781 231.734375 251.8125 Z M 231.734375 251.8125 " fill-opacity="1" fill-rule="nonzero"/></g><g clip-path="url(#id2)"><path fill="#000000" d="M 114.03125 256.410156 L 118.777344 256.410156 C 119.695312 256.410156 120.304688 255.796875 120.304688 254.878906 C 120.304688 253.960938 119.695312 253.347656 118.777344 253.347656 L 114.03125 253.347656 C 113.113281 253.347656 112.5 253.960938 112.5 254.878906 C 112.5 255.796875 113.113281 256.410156 114.03125 256.410156 Z M 114.03125 256.410156 " fill-opacity="1" fill-rule="nonzero"/></g><path fill="#000000" d="M 218.113281 166.597656 C 220.253906 163.53125 219.03125 159.699219 219.03125 159.546875 C 213.828125 141.613281 186.277344 141.304688 185.050781 141.304688 C 183.828125 141.304688 156.734375 141.460938 151.53125 159.390625 C 151.53125 159.546875 150.152344 163.53125 152.296875 166.597656 C 152.753906 167.207031 153.214844 167.667969 153.828125 168.128906 C 153.671875 168.28125 153.671875 168.28125 153.519531 168.433594 C 152.90625 169.046875 152.601562 169.96875 152.449219 170.734375 C 152.449219 171.039062 152.449219 171.195312 152.449219 171.5 L 152.449219 172.421875 C 152.449219 173.492188 152.753906 174.414062 153.367188 175.179688 C 153.214844 175.332031 152.90625 175.484375 152.753906 175.792969 C 151.835938 176.710938 151.222656 178.089844 151.222656 179.46875 C 151.222656 181.617188 152.449219 183.457031 154.285156 184.222656 L 154.285156 184.527344 C 154.285156 188.972656 157.960938 192.652344 162.398438 192.652344 L 207.703125 192.652344 C 212.144531 192.652344 215.816406 188.972656 215.816406 184.527344 L 215.816406 184.222656 C 216.277344 183.914062 216.734375 183.609375 217.195312 183.300781 C 218.113281 182.382812 218.722656 181.003906 218.722656 179.625 C 218.722656 177.9375 217.804688 176.25 216.582031 175.332031 C 217.039062 174.71875 217.347656 173.953125 217.347656 173.339844 C 217.347656 173.03125 217.347656 172.726562 217.347656 172.574219 L 217.347656 171.652344 C 217.347656 170.425781 216.886719 169.355469 216.121094 168.433594 C 217.039062 167.976562 217.652344 167.363281 218.113281 166.597656 Z M 154.4375 160.3125 C 159.03125 144.679688 184.746094 144.371094 185.050781 144.371094 C 185.355469 144.371094 211.53125 144.679688 216.121094 160.464844 C 216.121094 160.464844 216.886719 162.917969 215.511719 164.910156 C 214.59375 166.289062 212.753906 167.054688 210 167.363281 L 187.5 168.433594 C 185.816406 168.589844 184.285156 168.589844 182.601562 168.433594 L 160.101562 167.363281 C 157.5 167.207031 155.664062 166.441406 154.746094 165.0625 C 153.519531 163.070312 154.4375 160.464844 154.4375 160.3125 Z M 155.511719 171.652344 C 155.511719 171.5 155.511719 171.5 155.511719 171.652344 C 155.96875 171.808594 156.429688 172.265625 156.886719 172.726562 C 157.5 173.339844 158.265625 174.105469 159.183594 174.414062 L 157.347656 174.414062 C 156.429688 174.414062 155.511719 173.644531 155.511719 172.574219 Z M 178.621094 172.574219 C 179.082031 172.113281 179.539062 171.652344 180.152344 171.347656 L 182.449219 171.5 C 182.601562 171.5 182.90625 171.5 183.0625 171.5 C 183.519531 171.808594 183.828125 172.113281 184.285156 172.574219 C 184.898438 173.1875 185.664062 173.953125 186.582031 174.257812 L 176.171875 174.257812 C 177.398438 173.953125 178.011719 173.339844 178.621094 172.574219 Z M 190.101562 174.414062 C 191.171875 173.953125 191.785156 173.339844 192.398438 172.726562 C 193.011719 172.113281 193.621094 171.5 194.386719 171.347656 L 195.765625 171.347656 C 196.835938 171.5 197.449219 172.113281 198.214844 172.878906 C 198.828125 173.492188 199.59375 174.257812 200.511719 174.566406 L 190.101562 174.566406 Z M 199.285156 171.5 C 199.132812 171.347656 198.980469 171.195312 198.671875 170.886719 L 205.867188 170.582031 C 205.5625 170.886719 205.253906 171.195312 204.949219 171.5 C 204.183594 172.421875 203.417969 173.03125 202.039062 173.03125 C 200.816406 173.03125 200.203125 172.421875 199.285156 171.5 Z M 191.328125 171.5 C 190.5625 172.421875 189.796875 173.03125 188.417969 173.03125 C 187.039062 173.03125 186.429688 172.421875 185.511719 171.5 C 186.277344 171.5 186.886719 171.5 187.652344 171.5 L 191.480469 171.347656 C 191.480469 171.347656 191.328125 171.5 191.328125 171.5 Z M 177.550781 171.5 C 176.785156 172.421875 176.019531 173.03125 174.644531 173.03125 C 173.265625 173.03125 172.652344 172.421875 171.734375 171.5 C 171.582031 171.347656 171.429688 171.195312 171.121094 170.886719 L 177.703125 171.195312 C 177.703125 171.347656 177.550781 171.5 177.550781 171.5 Z M 167.753906 171.039062 C 169.132812 171.039062 169.746094 171.808594 170.664062 172.574219 C 171.277344 173.1875 172.039062 173.953125 172.960938 174.257812 L 162.550781 174.257812 C 163.621094 173.800781 164.234375 173.1875 164.847656 172.574219 C 165.613281 171.808594 166.378906 171.039062 167.753906 171.039062 Z M 203.878906 174.414062 C 204.949219 173.953125 205.5625 173.339844 206.171875 172.726562 C 206.9375 171.808594 207.703125 171.195312 209.082031 171.195312 C 210.460938 171.195312 211.070312 171.960938 211.988281 172.726562 C 212.449219 173.1875 213.0625 173.800781 213.671875 174.105469 C 213.367188 174.257812 213.0625 174.414062 212.753906 174.414062 Z M 159.949219 170.425781 L 164.539062 170.582031 C 164.234375 170.886719 163.929688 171.195312 163.621094 171.5 C 162.855469 172.421875 162.09375 173.03125 160.714844 173.03125 C 159.335938 173.03125 158.722656 172.421875 157.804688 171.5 C 157.347656 171.039062 156.734375 170.425781 156.121094 170.121094 C 156.277344 169.96875 156.429688 169.96875 156.734375 169.816406 C 157.804688 170.121094 158.878906 170.273438 159.949219 170.425781 Z M 154.898438 178.089844 C 155.355469 177.632812 155.816406 177.476562 156.429688 177.476562 L 213.671875 177.476562 C 214.898438 177.476562 215.816406 178.398438 215.816406 179.625 C 215.816406 180.238281 215.664062 180.695312 215.203125 181.15625 C 214.746094 181.617188 214.285156 181.769531 213.671875 181.769531 L 156.429688 181.769531 C 155.203125 181.769531 154.285156 180.851562 154.285156 179.625 C 154.132812 179.011719 154.4375 178.550781 154.898438 178.089844 Z M 207.703125 189.738281 L 162.398438 189.738281 C 159.644531 189.738281 157.5 187.59375 157.347656 184.988281 L 212.90625 184.988281 C 212.753906 187.59375 210.460938 189.738281 207.703125 189.738281 Z M 214.4375 171.652344 L 214.4375 172.574219 C 214.4375 172.574219 214.4375 172.574219 214.4375 172.726562 C 213.980469 172.421875 213.519531 171.960938 213.0625 171.5 C 212.601562 171.039062 212.144531 170.582031 211.683594 170.273438 C 212.296875 170.121094 212.753906 170.121094 213.214844 169.96875 C 213.980469 170.121094 214.4375 170.734375 214.4375 171.652344 Z M 214.4375 171.652344 " fill-opacity="1" fill-rule="nonzero"/><path fill="#000000" d="M 169.898438 158.164062 C 170.816406 158.164062 171.734375 157.398438 171.734375 156.328125 C 171.734375 155.253906 170.96875 154.488281 169.898438 154.488281 C 168.980469 154.488281 168.0625 155.253906 168.0625 156.328125 C 168.0625 157.398438 168.980469 158.164062 169.898438 158.164062 Z M 169.898438 158.164062 " fill-opacity="1" fill-rule="nonzero"/><path fill="#000000" d="M 185.511719 160.160156 C 186.429688 160.160156 187.347656 159.390625 187.347656 158.320312 C 187.347656 157.246094 186.582031 156.480469 185.511719 156.480469 C 184.59375 156.480469 183.671875 157.246094 183.671875 158.320312 C 183.671875 159.390625 184.4375 160.160156 185.511719 160.160156 Z M 185.511719 160.160156 " fill-opacity="1" fill-rule="nonzero"/><path fill="#000000" d="M 179.386719 154.027344 C 180.304688 154.027344 181.222656 153.261719 181.222656 152.1875 C 181.222656 151.117188 180.460938 150.347656 179.386719 150.347656 C 178.316406 150.347656 177.550781 151.117188 177.550781 152.1875 C 177.550781 153.261719 178.316406 154.027344 179.386719 154.027344 Z M 179.386719 154.027344 " fill-opacity="1" fill-rule="nonzero"/><path fill="#000000" d="M 192.703125 154.027344 C 193.621094 154.027344 194.539062 153.261719 194.539062 152.1875 C 194.539062 151.117188 193.777344 150.347656 192.703125 150.347656 C 191.632812 150.347656 190.867188 151.117188 190.867188 152.1875 C 190.867188 153.261719 191.632812 154.027344 192.703125 154.027344 Z M 192.703125 154.027344 " fill-opacity="1" fill-rule="nonzero"/><path fill="#000000" d="M 202.347656 158.472656 C 203.265625 158.472656 204.183594 157.707031 204.183594 156.632812 C 204.183594 155.558594 203.417969 154.792969 202.347656 154.792969 C 201.277344 154.792969 200.511719 155.558594 200.511719 156.632812 C 200.511719 157.707031 201.277344 158.472656 202.347656 158.472656 Z M 202.347656 158.472656 " fill-opacity="1" fill-rule="nonzero"/></svg>